<svg width="48" height="48" viewBox="0 0 48 48" fill="none" xmlns="http://www.w3.org/2000/svg">
  <!-- Owl with moon background -->
  <circle cx="24" cy="24" r="23" fill="#000000" stroke="#FFFFFF" stroke-width="2"/>
  
  <!-- Moon crescent -->
  <path d="M16 20 Q16 10, 20 10 Q16 10, 16 20 Q16 30, 20 30 Q16 30, 16 20 Z" fill="#FFFFFF" opacity="0.9"/>
  
  <!-- Owl body -->
  <ellipse cx="28" cy="28" rx="10" ry="12" fill="#5B7CB8"/>
  
  <!-- Owl head -->
  <circle cx="28" cy="23" r="8" fill="#5B7CB8"/>
  
  <!-- Ear tufts -->
  <path d="M22 16 L24 19 L23 16 Z" fill="#5B7CB8"/>
  <path d="M34 16 L32 19 L33 16 Z" fill="#5B7CB8"/>
  
  <!-- Eyes -->
  <circle cx="25" cy="23" r="3.5" fill="#FFFFFF"/>
  <circle cx="31" cy="23" r="3.5" fill="#FFFFFF"/>
  <circle cx="25" cy="23" r="2" fill="#000000"/>
  <circle cx="31" cy="23" r="2" fill="#000000"/>
  
  <!-- Beak -->
  <path d="M28 26 L26 28 L30 28 Z" fill="#4A5568"/>
  
  <!-- Wing -->
  <path d="M19 28 Q19 22, 23 24" stroke="#4A6094" stroke-width="2" fill="none"/>
</svg>
